<svg id="Laag_1" data-name="Laag 1" xmlns="http://www.w3.org/2000/svg" viewBox="0 0 362.04 72.17"><defs><style>.cls-1{fill:#fff;}</style></defs><title>logo-pbt</title><path class="cls-1" d="M380.5,549.64h-4.42V557c0,1.81,0,3.73,2.33,3.73a4.38,4.38,0,0,0,2.19-.48v2.81a7,7,0,0,1-2.77.55c-4.76,0-4.83-2.91-4.83-5.51v-8.46h-3.56V547H373v-4.55h3.08V547h4.42v2.67Z" transform="translate(-181.13 -500.68)"/><path class="cls-1" d="M390.94,546.56a8.53,8.53,0,1,1-8.63,8.52A8.53,8.53,0,0,1,390.94,546.56Zm0,14.17c3.29,0,5.34-2.36,5.34-5.65s-2.05-5.65-5.34-5.65-5.34,2.36-5.34,5.65S387.66,560.73,390.94,560.73Z" transform="translate(-181.13 -500.68)"/><path class="cls-1" d="M402.07,547h3.08v2.33h0.07a6.93,6.93,0,0,1,5.65-2.74c5,0,8.25,3.73,8.25,8.52s-3.25,8.52-8.25,8.52a6.79,6.79,0,0,1-5.65-2.74h-0.07v12h-3.08V547Zm3.08,8.11c0,3.29,2.05,5.65,5.34,5.65s5.34-2.36,5.34-5.65-2.05-5.65-5.34-5.65S405.15,551.8,405.15,555.08Z" transform="translate(-181.13 -500.68)"/><path class="cls-1" d="M424.08,538.89a2.26,2.26,0,1,1-2.26,2.26A2.28,2.28,0,0,1,424.08,538.89ZM422.54,547h3.08V563.2h-3.08V547Z" transform="translate(-181.13 -500.68)"/><path class="cls-1" d="M441.44,551.28a5.16,5.16,0,0,0-4-1.81c-3.36,0-5.07,2.7-5.07,5.75a5.2,5.2,0,0,0,5.24,5.51,4.81,4.81,0,0,0,3.94-1.81l2.19,2.19a8,8,0,0,1-6.16,2.5,8.51,8.51,0,0,1,0-17,8.32,8.32,0,0,1,6.23,2.57Z" transform="translate(-181.13 -500.68)"/><path class="cls-1" d="M460,563.2h-3.08v-2.5h-0.07a5.71,5.71,0,0,1-5.34,2.91c-3.15,0-5.89-1.88-5.89-6.2V547h3.08v9.59c0,3,1.75,4.18,3.7,4.18,2.57,0,4.52-1.64,4.52-5.41V547H460V563.2Z" transform="translate(-181.13 -500.68)"/><path class="cls-1" d="M472.63,551a4.11,4.11,0,0,0-3.32-1.61c-1.44,0-2.7.65-2.7,1.81,0,2,2.77,2.23,4.14,2.53,2.67,0.65,4.72,1.68,4.72,4.72,0,3.66-3.35,5.1-6.57,5.1-2.67,0-4.66-.68-6.27-2.88l2.33-1.92a5.39,5.39,0,0,0,3.94,1.92c1.57,0,3.29-.65,3.29-2.05,0-1.85-2.57-2.19-3.9-2.5-2.64-.65-5-1.51-5-4.62,0-3.39,3.12-5,6.16-5a6.26,6.26,0,0,1,5.55,2.67Z" transform="translate(-181.13 -500.68)"/><path class="cls-1" d="M465.58,507.45" transform="translate(-181.13 -500.68)"/><path class="cls-1" d="M468.66,510.35" transform="translate(-181.13 -500.68)"/><path class="cls-1" d="M475.49,518.39" transform="translate(-181.13 -500.68)"/><path class="cls-1" d="M476.86,512.72a45.1,45.1,0,0,1-5.23-4.32c-3.07-3.44-6.16-3.7-.51-5.79,4-1.49,9.54-.86,13.95.54,2.28,0.73,4,5.82,3.49,7.83s0.45,2.47.45,2.47-0.55-.09-2,0.91-1.64,1.83-4.75,2.19-9.14.46-9.14,0.46l-6.71-7Zm2.5-2.17a1.29,1.29,0,1,0,1.28-1.46A1.38,1.38,0,0,0,479.36,510.56Z" transform="translate(-181.13 -500.68)"/><path class="cls-1" d="M469.44,509.27s-6.14-1.35-6.88-1.1a3.32,3.32,0,0,1-3.07-.86c-1.23-1-3.68-2.7-2.7-3.93s2-3.19,3.56-2.58,3.56,0.86,3.31,1.72a2.75,2.75,0,0,1-.86,1.72,1.59,1.59,0,0,1-1.84.12,2.38,2.38,0,0,1-1-1.47,4.13,4.13,0,0,0,1.23.49c0.37,0,.86-0.12.73-0.49a3.18,3.18,0,0,0-1.23-.86,2.9,2.9,0,0,0-1.72.12,4.34,4.34,0,0,0-.74,2s1.23,2.21,1.84,2.46a6.82,6.82,0,0,0,2.09.37,14.83,14.83,0,0,1,3.19.12C466.37,507.3,469.31,508.77,469.44,509.27Z" transform="translate(-181.13 -500.68)"/><path class="cls-1" d="M509.46,537.32a15.7,15.7,0,0,1-1.08,6.45,8.28,8.28,0,0,0,.68,6.41c0.89,1.28,6.89,5.11,12.86,6.72,5.78,1.57,16.72,1.78,20.87-3.26,0,0,2.08-4.65-3.46-10.48s-12.85-6.41-17.1-4.73-5.25,3.44-4.06,5.82,2.08,4.65,6.23,3.86,4.75-1.49,3.66-3.46-2.57-1.88-2.57-1.88,1.09,1.78-.4,2.87-2.87.6-4.05-.59a2.55,2.55,0,0,1-.1-3.66c1.5-1.12,9-1.88,13.06,1.19s5.14,5.64,3,7.22-9.4,5.24-16.42.2S510.74,541.87,509.46,537.32Z" transform="translate(-181.13 -500.68)"/><path class="cls-1" d="M505.07,551.16s-12.5-1.76-8.44-5.82,5-3.54,5.9-2.82a23.62,23.62,0,0,1,3.61,4.33s-1-1.57.59-5.18,0.85-6.23,1.18-9,3-5,4.39-5l1.94,4.93,6.78,1-1.11-2,2.43-1.24-3.15-.66,1.83-3.21-4.13,2.36s-2.3-4.52-3.67-6.49l-1.37-2.16s-4.46,7.87-6.16,9.83-5.42,2.88-7.35,4.72a20.52,20.52,0,0,0-4.85,6.82,74.67,74.67,0,0,0-2.44,8.74l6,2.5L494.46,556l3.32-1.29-0.4,5.1,3.2-4,0.13,4.83Z" transform="translate(-181.13 -500.68)"/><path class="cls-1" d="M493.36,536.29s2.43-3.37,5.09-4.45c2.91-1.18,5.63-2,6.27-2.91,0,0-9.07-6.77-9.76-8.48,0,0-6.19,1.91-6.35,11.46Z" transform="translate(-181.13 -500.68)"/><path class="cls-1" d="M501.09,515.31c-3.91,2.64-4.54,1.91-9,4.91s-4.09,7-7.73,12.54-7.36,6.18-7.36,6.18a19.09,19.09,0,0,1-3.36-1.09c-1.64-.73-7.63-9-7.63-9l4.72,2.18-1.18-6.36,5.36,6.91,2.82-5.72,0.09,7.27c1.27-.09,2.18-1,2.73-2.54s1.72-4.54,1.72-4.54L477,520.49c7.36-.73,9.91-2.64,11.27-4.09s1.4-1.58,2.12-1.67a4.76,4.76,0,0,1,1.25.13c3.09,0.18,9.18-3.18,9.18-3.18a45.37,45.37,0,0,1-5-2.36,6.82,6.82,0,0,1-3.27-3.63l2.63,1.18,0.18-5.27,2.18,4.09,2-4.36-0.09,4.81,5.09,4.09,1.64,2.27Z" transform="translate(-181.13 -500.68)"/><path class="cls-1" d="M181.13,547.18h2v2.75h0.07a5.3,5.3,0,0,1,1.19-1.41,7.15,7.15,0,0,1,1.55-1,7.76,7.76,0,0,1,1.75-.58,9,9,0,0,1,1.8-.19,8.76,8.76,0,0,1,3.32.61,7.69,7.69,0,0,1,4.33,4.33,9.29,9.29,0,0,1,0,6.63,7.69,7.69,0,0,1-4.33,4.33,8.76,8.76,0,0,1-3.32.61,9,9,0,0,1-1.8-.19,7.71,7.71,0,0,1-1.75-.58,7.11,7.11,0,0,1-1.55-1,5.28,5.28,0,0,1-1.19-1.41h-0.07v10.51h-2V547.18ZM183,555a6.2,6.2,0,0,0,.51,2.5,6.38,6.38,0,0,0,1.39,2,6.68,6.68,0,0,0,2.07,1.38,6.48,6.48,0,0,0,2.58.51,6.32,6.32,0,0,0,2.58-.51,6,6,0,0,0,2-1.38,5.84,5.84,0,0,0,1.24-2,7.56,7.56,0,0,0,0-5,5.84,5.84,0,0,0-1.24-2,6,6,0,0,0-2-1.38,6.32,6.32,0,0,0-2.58-.51,6.48,6.48,0,0,0-2.58.51,6.68,6.68,0,0,0-2.07,1.38,6.38,6.38,0,0,0-1.39,2A6.2,6.2,0,0,0,183,555Z" transform="translate(-181.13 -500.68)"/><path class="cls-1" d="M201.46,555a8.76,8.76,0,0,1,.61-3.32,7.91,7.91,0,0,1,1.7-2.62,7.57,7.57,0,0,1,2.62-1.72,8.89,8.89,0,0,1,3.33-.61,8.76,8.76,0,0,1,3.31.61,7.69,7.69,0,0,1,4.33,4.33,9.29,9.29,0,0,1,0,6.63,7.69,7.69,0,0,1-4.33,4.33,8.76,8.76,0,0,1-3.31.61,8.89,8.89,0,0,1-3.33-.61,7.57,7.57,0,0,1-2.62-1.72,7.9,7.9,0,0,1-1.7-2.62A8.75,8.75,0,0,1,201.46,555Zm2,0a7.26,7.26,0,0,0,.42,2.5,5.83,5.83,0,0,0,1.24,2,6,6,0,0,0,2,1.38,6.79,6.79,0,0,0,5.17,0,6,6,0,0,0,2-1.38,5.83,5.83,0,0,0,1.24-2,7.56,7.56,0,0,0,0-5,5.83,5.83,0,0,0-1.24-2,6,6,0,0,0-2-1.38,6.79,6.79,0,0,0-5.17,0,6,6,0,0,0-2,1.38,5.83,5.83,0,0,0-1.24,2A7.26,7.26,0,0,0,203.5,555Z" transform="translate(-181.13 -500.68)"/><path class="cls-1" d="M220.33,547.18h2.24l3.81,13.16h0.07l4.39-13.16h1.94l4.66,13.16h0.07l3.71-13.16h2l-4.62,15.71h-2.11L231.82,550h-0.07l-4.39,12.85h-2.11Z" transform="translate(-181.13 -500.68)"/><path class="cls-1" d="M260.35,559.93a6.87,6.87,0,0,1-2.94,2.58,9.35,9.35,0,0,1-3.86.78,8.37,8.37,0,0,1-3.26-.61,7.36,7.36,0,0,1-2.52-1.72,7.53,7.53,0,0,1-1.62-2.62,9.56,9.56,0,0,1-.56-3.35,9,9,0,0,1,.58-3.26,7.79,7.79,0,0,1,1.63-2.6,7.68,7.68,0,0,1,2.48-1.73,7.77,7.77,0,0,1,3.16-.63,7.59,7.59,0,0,1,3.18.63,7,7,0,0,1,2.31,1.67,7.07,7.07,0,0,1,1.41,2.36,7.89,7.89,0,0,1,.48,2.69v1.43H247.63a7,7,0,0,0,.25,1.65,5.82,5.82,0,0,0,.94,2,5.92,5.92,0,0,0,1.82,1.63,5.67,5.67,0,0,0,2.94.68,6.56,6.56,0,0,0,3-.75,5.46,5.46,0,0,0,2.24-2Zm-1.56-6.22a4.64,4.64,0,0,0-.42-2,5.29,5.29,0,0,0-1.16-1.61,5.48,5.48,0,0,0-1.73-1.11,5.6,5.6,0,0,0-2.12-.41,5.2,5.2,0,0,0-2.77.68,6.06,6.06,0,0,0-1.75,1.56,6.23,6.23,0,0,0-.92,1.72,4.54,4.54,0,0,0-.27,1.14h11.15Z" transform="translate(-181.13 -500.68)"/><path class="cls-1" d="M265.38,551.6q0-.44,0-1.07t-0.05-1.27q0-.65-0.05-1.21t0-.87h2q0,0.88.05,1.7a5.28,5.28,0,0,0,.08,1.05,7,7,0,0,1,2-2.28,5,5,0,0,1,3-.88,3.49,3.49,0,0,1,.59.05l0.6,0.12-0.24,2a2.49,2.49,0,0,0-.78-0.14,5.68,5.68,0,0,0-2.29.42,4.32,4.32,0,0,0-1.6,1.17,4.91,4.91,0,0,0-.94,1.75,7.36,7.36,0,0,0-.31,2.16v8.57h-2V551.6Z" transform="translate(-181.13 -500.68)"/><path class="cls-1" d="M290,559.93a6.87,6.87,0,0,1-2.94,2.58,9.35,9.35,0,0,1-3.86.78,8.37,8.37,0,0,1-3.26-.61,7.36,7.36,0,0,1-2.52-1.72,7.53,7.53,0,0,1-1.62-2.62,9.56,9.56,0,0,1-.56-3.35,9,9,0,0,1,.58-3.26,7.79,7.79,0,0,1,1.63-2.6,7.68,7.68,0,0,1,2.48-1.73,7.77,7.77,0,0,1,3.16-.63,7.59,7.59,0,0,1,3.18.63,7,7,0,0,1,2.31,1.67,7.07,7.07,0,0,1,1.41,2.36,7.89,7.89,0,0,1,.48,2.69v1.43H277.24a7,7,0,0,0,.25,1.65,5.82,5.82,0,0,0,.94,2,5.92,5.92,0,0,0,1.82,1.63,5.67,5.67,0,0,0,2.94.68,6.56,6.56,0,0,0,3-.75,5.46,5.46,0,0,0,2.24-2Zm-1.56-6.22a4.64,4.64,0,0,0-.42-2,5.29,5.29,0,0,0-1.16-1.61,5.48,5.48,0,0,0-1.73-1.11,5.6,5.6,0,0,0-2.12-.41,5.2,5.2,0,0,0-2.77.68,6.06,6.06,0,0,0-1.75,1.56,6.23,6.23,0,0,0-.92,1.72,4.54,4.54,0,0,0-.27,1.14H288.4Z" transform="translate(-181.13 -500.68)"/><path class="cls-1" d="M308.73,560.13h-0.07a5.3,5.3,0,0,1-1.19,1.41,7.14,7.14,0,0,1-1.55,1,7.71,7.71,0,0,1-1.75.58,9,9,0,0,1-1.8.19,8.89,8.89,0,0,1-3.33-.61,7.57,7.57,0,0,1-2.62-1.72,7.9,7.9,0,0,1-1.7-2.62,9.28,9.28,0,0,1,0-6.63,7.91,7.91,0,0,1,1.7-2.62,7.57,7.57,0,0,1,2.62-1.72,8.89,8.89,0,0,1,3.33-.61,9,9,0,0,1,1.8.19,7.76,7.76,0,0,1,1.75.58,7.18,7.18,0,0,1,1.55,1,5.31,5.31,0,0,1,1.19,1.41h0.07V537.18h2v25.7h-2v-2.75Zm0.2-5.1a6.18,6.18,0,0,0-.51-2.5,6.39,6.39,0,0,0-1.39-2,6.7,6.7,0,0,0-2.07-1.38,6.48,6.48,0,0,0-2.58-.51,6.32,6.32,0,0,0-2.58.51,6,6,0,0,0-2,1.38,5.83,5.83,0,0,0-1.24,2,7.56,7.56,0,0,0,0,5,5.83,5.83,0,0,0,1.24,2,6,6,0,0,0,2,1.38,6.32,6.32,0,0,0,2.58.51,6.48,6.48,0,0,0,2.58-.51,6.7,6.7,0,0,0,2.07-1.38,6.39,6.39,0,0,0,1.39-2A6.18,6.18,0,0,0,308.93,555Z" transform="translate(-181.13 -500.68)"/><path class="cls-1" d="M324.16,537.18h2v12.75h0.07a5.29,5.29,0,0,1,1.19-1.41,7.15,7.15,0,0,1,1.55-1,7.77,7.77,0,0,1,1.75-.58,9,9,0,0,1,1.8-.19,8.76,8.76,0,0,1,3.32.61,7.69,7.69,0,0,1,4.33,4.33,9.28,9.28,0,0,1,0,6.63,7.69,7.69,0,0,1-4.33,4.33,8.76,8.76,0,0,1-3.32.61,9,9,0,0,1-1.8-.19,7.72,7.72,0,0,1-1.75-.58,7.11,7.11,0,0,1-1.55-1,5.28,5.28,0,0,1-1.19-1.41H326.2v2.75h-2v-25.7ZM326,555a6.2,6.2,0,0,0,.51,2.5,6.38,6.38,0,0,0,1.39,2,6.69,6.69,0,0,0,2.07,1.38,6.48,6.48,0,0,0,2.58.51,6.32,6.32,0,0,0,2.58-.51,6,6,0,0,0,2-1.38,5.85,5.85,0,0,0,1.24-2,7.56,7.56,0,0,0,0-5,5.85,5.85,0,0,0-1.24-2,6,6,0,0,0-2-1.38,6.32,6.32,0,0,0-2.58-.51,6.48,6.48,0,0,0-2.58.51,6.69,6.69,0,0,0-2.07,1.38,6.38,6.38,0,0,0-1.39,2A6.2,6.2,0,0,0,326,555Z" transform="translate(-181.13 -500.68)"/><path class="cls-1" d="M349.8,567.75a5.86,5.86,0,0,1-1.6,2.41,4,4,0,0,1-2.72.88,6.32,6.32,0,0,1-1-.08,8.89,8.89,0,0,1-1-.22l0.2-1.9,0.9,0.25a3.72,3.72,0,0,0,.94.12,2,2,0,0,0,1-.24,2.54,2.54,0,0,0,.73-0.61,4.17,4.17,0,0,0,.53-0.83,9.74,9.74,0,0,0,.39-0.93l1.43-3.64-6.39-15.78h2.28l5.2,13.23,5.07-13.23h2.18Z" transform="translate(-181.13 -500.68)"/></svg>